<svg width="69" height="52" viewBox="0 0 69 52" fill="none" xmlns="http://www.w3.org/2000/svg">
<path d="M49.4001 0L56.8851 16.5455H41.9151L49.4001 0Z" fill="#06173B"/>
<path d="M20.1231 0L27.6081 16.5455H12.6381L20.1231 0Z" fill="#06173B"/>
<path d="M34.6729 47.2964L12.4305 37.7167L56.9032 37.6887L34.6729 47.2964Z" fill="#06173B"/>
<rect x="12.5703" y="16.4678" width="44.3826" height="21.2838" fill="#06173B"/>
<path d="M20.3567 26.4106C20.3567 26.4106 24.4835 22.9151 29.1554 26.4106" stroke="#FFF8F8" stroke-width="2"/>
<path d="M39.5113 26.4106C39.5113 26.4106 43.6381 22.9151 48.31 26.4106" stroke="#FFF8F8" stroke-width="2"/>
<path d="M34.7437 34.8005L32.6817 32.0024L36.8315 32.0215L34.7437 34.8005Z" fill="#FFFDFD"/>
<path d="M67.2565 43.4793C67.2565 43.4793 56.349 33.1106 39.3352 32.1738" stroke="#F9F9F9"/>
<path d="M66.0993 46.8891C66.0993 46.8891 56.0047 35.7311 39.1098 33.5198" stroke="#F9F9F9"/>
<path d="M64.4685 50.7739C64.4685 50.7739 55.6212 38.6078 39.058 34.6159" stroke="#F9F9F9"/>
<path d="M1.43452 41.5166C1.43452 41.5166 13.0263 31.9151 30.0645 32.1394" stroke="#F9F9F9"/>
<path d="M2.35561 44.9972C2.35561 44.9972 13.1904 34.5529 30.1972 33.4977" stroke="#F9F9F9"/>
<path d="M3.71662 48.984C3.71662 48.984 13.3761 37.449 30.1738 34.5947" stroke="#F9F9F9"/>
</svg>
